<svg width="64" height="64" xmlns="http://www.w3.org/2000/svg">
 <!-- Created with Method Draw - http://github.com/duopixel/Method-Draw/ -->
 <defs>
  <linearGradient id="svg_5" x1="0.5" y1="0" x2="0.5" y2="1">
   <stop stop-color="#111d2e" offset="0"/>
   <stop stop-color="#1386B7" offset="1"/>
  </linearGradient>
 </defs>
 <g>
  <title>background</title>
  <rect x="-1" y="-1" width="18.241666" height="18.241666" id="canvas_background" fill="none"/>
  <g id="canvasGrid" display="none">
   <rect id="svg_2" width="100%" height="100%" x="0" y="0" stroke-width="0" fill="url(#gridpattern)"/>
  </g>
 </g>
 <g>
  <title>Layer 1</title>
  <ellipse fill="url(#svg_5)" stroke-width="0" cx="32" cy="31.9881" id="svg_1" rx="32" ry="32" stroke="#ffffff"/>
  <g stroke="null" id="svg_9">
   <path fill="#ffffff" id="svg_8" d="m49.958623,14.534952l-3.581569,3.458194c3.657772,3.556299 5.94388,8.461539 5.94388,13.881829a20.320958,19.62096 0 0 1 -20.320958,19.62096a20.320958,19.62096 0 0 1 -20.320958,-19.62096c0,-10.00669 7.747365,-18.247493 17.780838,-19.449277l0,4.954292c-7.21394,1.177258 -12.700599,7.210703 -12.700599,14.494984a15.240718,14.71572 0 0 0 15.240718,14.71572a15.240718,14.71572 0 0 0 15.240718,-14.71572c0,-4.071349 -1.70188,-7.750279 -4.470611,-10.399109l-3.581569,3.458194c1.828886,1.790413 2.97194,4.243033 2.97194,6.940915a10.160479,9.81048 0 0 1 -10.160479,9.81048a10.160479,9.81048 0 0 1 -10.160479,-9.81048c0,-4.561873 3.251353,-8.363434 7.620359,-9.467113l0,5.248607c-1.524072,0.858417 -2.54012,2.403568 -2.54012,4.218506a5.080239,4.90524 0 0 0 5.080239,4.90524a5.080239,4.90524 0 0 0 5.080239,-4.90524c0,-1.814939 -1.016048,-3.384616 -2.54012,-4.218506l0,-20.307694l-2.54012,0a25.401197,24.5262 0 0 0 -25.401197,24.5262a25.401197,24.5262 0 0 0 25.401197,24.5262a25.401197,24.5262 0 0 0 25.401197,-24.5262c0,-6.769231 -2.844934,-12.900781 -7.442551,-17.340023z"/>
  </g>
 </g>
</svg>